# xmcd
#
# Track frame offsets: 
#        182
#        14272
#        27460
#        42805
#        56570
#        69452
#        85057
#        98462
#        111222
#        125555
#        138987
#        152565
#        166010
#        178472
#        191562
#        204482
#
# Disc length: 2852 seconds
#
# Revision: 1
# Processed by: cddbd v1.5.2PL0 Copyright (c) Steve Scherf et al.
# Submitted via: ExactAudioCopyFreeDBPlugin 1.0
#
DISCID=d10b2210
DTITLE=Various Artist - Roots of the Blues Volume 2
DYEAR=1995
DGENRE=Blues
TTITLE0=Scrapper Blackwell - Kokomo Blues
TTITLE1=Mississippi John Hurt - Nobody's Dirty Business
TTITLE2=Pinetop Smith - Pine Top Boogie Woogie
TTITLE3=Hambone Willie Newbern - Roll and Tumble Blues
TTITLE4=Skip James - I'm so Glad
TTITLE5=Tampa Red - Black Angel Blues
TTITLE6=Leroy Carr - When The Sun Goes Down
TTITLE7=Blind Boy Fuller - Truckin' My Blues Away
TTITLE8=Casey Bill Weldon - You Just As Well Let Her Go
TTITLE9=Robert Johnson - I Believe I'll Dust My Broom
TTITLE10=Sonny Boy Williamson - Good Morning School Girl
TTITLE11=Big Bill Broonzy - That's All Right Baby
TTITLE12=Memphis Minnie - Nothin' In Ramblin'
TTITLE13=Robert Petway - Catfish
TTITLE14=Big Maceo Merriweather - Worried Life Blues
TTITLE15=Muddy Waters - You Got To Take Sick And Die Some of These Day
TTITLE15=s
EXTD=
EXTT0=
EXTT1=
EXTT2=
EXTT3=
EXTT4=
EXTT5=
EXTT6=
EXTT7=
EXTT8=
EXTT9=
EXTT10=
EXTT11=
EXTT12=
EXTT13=
EXTT14=
EXTT15=
PLAYORDER=
